<mxfile host="app.diagrams.net" agent="Mozilla/5.0 (Windows NT 10.0; Win64; x64) AppleWebKit/537.36 (KHTML, like Gecko) Chrome/130.0.0.0 Safari/537.36" version="24.8.3">
  <diagram name="Страница — 1" id="WGMi7aN2M8gCODtiAXmC">
    <mxGraphModel dx="840" dy="526" grid="1" gridSize="10" guides="1" tooltips="1" connect="1" arrows="1" fold="1" page="1" pageScale="1" pageWidth="827" pageHeight="1169" math="0" shadow="0">
      <root>
        <mxCell id="0" />
        <mxCell id="1" parent="0" />
        <mxCell id="nPkZhUvbyxET6VQS_U0p-1" value="" style="rounded=1;whiteSpace=wrap;html=1;" vertex="1" parent="1">
          <mxGeometry x="120" y="110" width="130" height="250" as="geometry" />
        </mxCell>
        <mxCell id="nPkZhUvbyxET6VQS_U0p-3" value="1. address_id &amp;gt; 0.&lt;div&gt;2. user_id &amp;gt; 0.&amp;nbsp; &amp;nbsp; &amp;nbsp;&amp;nbsp;&lt;/div&gt;" style="rounded=1;whiteSpace=wrap;html=1;" vertex="1" parent="1">
          <mxGeometry x="360" y="173.75" width="210" height="162.5" as="geometry" />
        </mxCell>
        <mxCell id="nPkZhUvbyxET6VQS_U0p-5" value="" style="endArrow=classic;startArrow=classic;html=1;rounded=0;entryX=0;entryY=0.375;entryDx=0;entryDy=0;entryPerimeter=0;exitX=0.992;exitY=0.43;exitDx=0;exitDy=0;exitPerimeter=0;" edge="1" parent="1">
          <mxGeometry width="50" height="50" relative="1" as="geometry">
            <mxPoint x="248.96000000000004" y="254.58000000000004" as="sourcePoint" />
            <mxPoint x="360" y="254.5675" as="targetPoint" />
            <Array as="points" />
          </mxGeometry>
        </mxCell>
        <mxCell id="nPkZhUvbyxET6VQS_U0p-6" value="1. addres_id.&lt;div&gt;2. count_pb.&amp;nbsp;&lt;/div&gt;&lt;div&gt;3. user_id.&amp;nbsp; &amp;nbsp;&amp;nbsp;&lt;/div&gt;" style="shape=cylinder3;whiteSpace=wrap;html=1;boundedLbl=1;backgroundOutline=1;size=15;" vertex="1" parent="1">
          <mxGeometry x="670" y="170" width="130" height="166.25" as="geometry" />
        </mxCell>
        <mxCell id="nPkZhUvbyxET6VQS_U0p-7" value="" style="endArrow=classic;startArrow=classic;html=1;rounded=0;entryX=0;entryY=0.375;entryDx=0;entryDy=0;entryPerimeter=0;" edge="1" parent="1">
          <mxGeometry width="50" height="50" relative="1" as="geometry">
            <mxPoint x="570" y="255" as="sourcePoint" />
            <mxPoint x="670" y="254.5675" as="targetPoint" />
            <Array as="points" />
          </mxGeometry>
        </mxCell>
        <mxCell id="nPkZhUvbyxET6VQS_U0p-8" value="User story: Я, как пользователь приложения БериЗаряд, хочу иметь возможность знать количество доступных пауэрбанков в постамате, для того чтобы не приходить к постамату если он пустой" style="text;html=1;align=center;verticalAlign=middle;whiteSpace=wrap;rounded=0;" vertex="1" parent="1">
          <mxGeometry y="10" width="820" height="30" as="geometry" />
        </mxCell>
        <mxCell id="nPkZhUvbyxET6VQS_U0p-9" value="&lt;b&gt;A&lt;/b&gt;&amp;nbsp;&lt;div&gt;Мобильное приложение&lt;/div&gt;" style="text;html=1;align=center;verticalAlign=middle;whiteSpace=wrap;rounded=0;" vertex="1" parent="1">
          <mxGeometry x="115" y="60" width="140" height="30" as="geometry" />
        </mxCell>
        <mxCell id="nPkZhUvbyxET6VQS_U0p-10" value="&lt;b&gt;B&lt;/b&gt;&amp;nbsp;&lt;div&gt;Сервер&lt;/div&gt;" style="text;html=1;align=center;verticalAlign=middle;whiteSpace=wrap;rounded=0;" vertex="1" parent="1">
          <mxGeometry x="440" y="55" width="50" height="40" as="geometry" />
        </mxCell>
        <mxCell id="nPkZhUvbyxET6VQS_U0p-11" value="&lt;b&gt;С&lt;/b&gt;&lt;br&gt;&lt;div&gt;База данных PG&lt;/div&gt;" style="text;html=1;align=center;verticalAlign=middle;whiteSpace=wrap;rounded=0;" vertex="1" parent="1">
          <mxGeometry x="685" y="60" width="100" height="30" as="geometry" />
        </mxCell>
        <mxCell id="nPkZhUvbyxET6VQS_U0p-12" value="https" style="text;html=1;align=center;verticalAlign=middle;whiteSpace=wrap;rounded=0;" vertex="1" parent="1">
          <mxGeometry x="270" y="220" width="60" height="30" as="geometry" />
        </mxCell>
        <mxCell id="nPkZhUvbyxET6VQS_U0p-14" value="ODBC" style="text;html=1;align=center;verticalAlign=middle;whiteSpace=wrap;rounded=0;" vertex="1" parent="1">
          <mxGeometry x="590" y="220" width="60" height="30" as="geometry" />
        </mxCell>
      </root>
    </mxGraphModel>
  </diagram>
</mxfile>
